<svg width="89" height="24" viewBox="0 0 89 24" fill="none" xmlns="http://www.w3.org/2000/svg">
<path d="M4.73569 3.98309C4.94998 3.64019 5.54998 3.12584 6.08569 2.84723C6.59997 2.59005 7.32854 2.35431 7.69283 2.35431C8.03568 2.35431 8.74282 2.59005 9.2571 2.84723C9.89996 3.19013 10.3071 3.61876 10.6928 4.34743C11.1857 5.24755 11.2928 5.3547 11.9785 5.3547C12.6214 5.3547 12.7928 5.24755 13.1357 4.56174C13.3499 4.11168 13.7785 3.53304 14.0571 3.27586C14.3142 3.01868 14.8071 2.71864 15.1285 2.59005C15.4714 2.46147 15.9856 2.35431 16.3071 2.35431C16.6499 2.35431 17.3356 2.56862 17.8499 2.84723C18.3642 3.10441 18.9642 3.61876 19.1785 3.96166C19.4142 4.34743 19.5856 5.03323 19.5856 5.67617C19.5856 6.4477 19.4571 6.96206 19.1142 7.49784C18.8356 7.90504 18.2785 8.41939 17.8714 8.61228C17.4642 8.82659 16.7356 8.99804 16.2642 8.99804C15.7928 8.97661 15.0857 8.80516 14.7214 8.61228C14.3357 8.41939 13.7142 7.77645 13.3285 7.17637C12.7714 6.34055 12.4714 6.08337 11.9785 6.04051C11.4428 5.97621 11.2714 6.08337 10.9714 6.68345C10.7571 7.06922 10.4571 7.54071 10.2857 7.73359C10.1142 7.92647 9.64282 8.2908 9.2571 8.54798C8.80711 8.82659 8.18568 8.99804 7.58568 8.99804C6.94283 8.99804 6.38569 8.84802 5.89283 8.52655C5.48569 8.24794 4.94998 7.69073 4.71427 7.28353C4.4357 6.79061 4.30713 6.19053 4.32855 5.56902C4.34998 5.03323 4.52141 4.326 4.73569 3.98309Z" fill="#313131"/>
<path d="M0.514284 11.5698C0.814282 11.1626 1.39285 10.6054 1.79999 10.3482C2.20713 10.0696 2.84999 9.8553 3.19284 9.8553C3.5357 9.8553 4.17855 9.98389 4.58569 10.1553C4.99284 10.3268 5.54998 10.6911 5.80712 10.9697C6.06426 11.2269 6.36426 11.7198 6.49283 12.0627C6.6214 12.3842 6.72854 12.8986 6.72854 13.2415C6.72854 13.5629 6.49283 14.2702 6.19283 14.8488C5.89283 15.406 5.65712 16.049 5.65712 16.2847C5.65712 16.5205 5.84998 16.9062 6.08569 17.142C6.42854 17.4849 6.68569 17.5492 7.32854 17.442C7.84282 17.3563 8.39996 17.4206 8.93568 17.6563C9.38567 17.8492 10.0285 18.4064 10.3928 18.9208C10.9714 19.6923 11.0357 19.9709 10.9714 20.8925C10.9285 21.4925 10.7142 22.2212 10.4785 22.5427C10.2428 22.8641 9.7071 23.3142 9.29996 23.55C8.89282 23.7857 8.16425 23.9786 7.69283 24C7.2214 24 6.49283 23.8286 6.08569 23.6143C5.67855 23.4214 5.12141 22.907 4.84284 22.4998C4.49998 21.9855 4.37141 21.4497 4.37141 20.7424C4.37141 20.0138 4.54284 19.3923 4.97141 18.6636C5.52855 17.6563 5.54998 17.6135 5.18569 17.0562C4.84284 16.5633 4.67141 16.499 3.57856 16.499C2.6357 16.499 2.16428 16.3919 1.60714 16.0275C1.19999 15.7489 0.664283 15.1917 0.42857 14.7845C0.192856 14.3773 0 13.6487 0 13.1772C0 12.6199 0.171428 12.0627 0.514284 11.5698Z" fill="#313131"/>
<path d="M18.2142 10.884C18.4499 10.6911 18.9214 10.3696 19.2642 10.1768C19.7142 9.94102 20.2071 9.87673 20.9356 9.94102C21.4928 10.0267 22.2428 10.2625 22.5856 10.4982C22.9285 10.734 23.357 11.184 23.5285 11.5269C23.6999 11.8484 23.8928 12.4485 23.957 12.8557C24.0642 13.4129 23.9785 13.8415 23.6142 14.5488C23.3356 15.0846 22.8428 15.7061 22.5213 15.9418C22.1142 16.2419 21.4499 16.4347 20.4856 16.499C19.1785 16.6062 19.0285 16.649 18.7928 17.2063C18.5356 17.7206 18.5785 17.8921 19.0499 18.7493C19.3499 19.2851 19.6071 20.1209 19.6285 20.6353C19.6499 21.1925 19.4999 21.814 19.2428 22.2641C19.0285 22.6713 18.5999 23.1856 18.2999 23.3999C17.9999 23.6357 17.2928 23.8714 16.6928 23.9357C15.8571 24.0214 15.4071 23.9572 14.7214 23.5928C14.0785 23.2928 13.6714 22.8642 13.3714 22.2855C13.1357 21.814 12.9428 21.0639 12.9428 20.6353C12.9428 20.1424 13.1142 19.5423 13.4142 19.0922C13.6928 18.685 14.1857 18.1492 14.5071 17.9135C14.9571 17.592 15.4714 17.4634 16.4356 17.4206C17.4642 17.3991 17.8285 17.292 18.0428 16.992C18.1928 16.7776 18.2999 16.4347 18.2999 16.2419C18.2999 16.0275 18.0642 15.406 17.7642 14.8488C17.4642 14.2702 17.2285 13.5629 17.2285 13.2415C17.2285 12.8986 17.3571 12.3199 17.5285 11.9556C17.6785 11.5698 17.9999 11.0769 18.2142 10.884Z" fill="#313131"/>
<path d="M38.36 19.2C37.6 19.2 36.9433 19.0767 36.39 18.83C35.8367 18.5833 35.32 18.2467 34.84 17.82L35.58 17.3L35.46 19H33.14V4H35.62V10.66L35.02 10.28C35.46 9.82667 35.95 9.47333 36.49 9.22C37.0367 8.96667 37.66 8.84 38.36 8.84C39.34 8.84 40.1633 9.07667 40.83 9.55C41.4967 10.0233 42 10.6533 42.34 11.44C42.6867 12.2267 42.86 13.0867 42.86 14.02C42.86 14.9533 42.6867 15.8133 42.34 16.6C42 17.3867 41.4967 18.0167 40.83 18.49C40.1633 18.9633 39.34 19.2 38.36 19.2ZM38 17.16C38.4933 17.16 38.9133 17.0267 39.26 16.76C39.6067 16.4933 39.87 16.1267 40.05 15.66C40.23 15.1867 40.32 14.64 40.32 14.02C40.32 13.4 40.23 12.8567 40.05 12.39C39.87 11.9167 39.6067 11.5467 39.26 11.28C38.9133 11.0133 38.4933 10.88 38 10.88C37.42 10.88 36.9467 11.0133 36.58 11.28C36.2133 11.5467 35.94 11.9167 35.76 12.39C35.5867 12.8567 35.5 13.4 35.5 14.02C35.5 14.64 35.5867 15.1867 35.76 15.66C35.94 16.1267 36.2133 16.4933 36.58 16.76C36.9467 17.0267 37.42 17.16 38 17.16ZM47.1458 19.2C46.5524 19.2 46.0658 19.0833 45.6858 18.85C45.3124 18.61 45.0358 18.2933 44.8558 17.9C44.6758 17.5 44.5858 17.06 44.5858 16.58V4H47.0658V15.56C47.0658 16.0933 47.0958 16.4733 47.1558 16.7C47.2224 16.92 47.3424 17.0533 47.5158 17.1C47.6891 17.14 47.9391 17.16 48.2658 17.16L48.0458 19.2H47.1458ZM54.282 19.2C53.1954 19.2 52.2687 18.9633 51.502 18.49C50.7354 18.0167 50.1487 17.3867 49.742 16.6C49.342 15.8133 49.142 14.9533 49.142 14.02C49.142 13.08 49.342 12.2133 49.742 11.42C50.1487 10.6267 50.7354 9.99333 51.502 9.52C52.2687 9.04 53.1954 8.8 54.282 8.8C55.3687 8.8 56.2954 9.04 57.062 9.52C57.8287 9.99333 58.412 10.6267 58.812 11.42C59.2187 12.2133 59.422 13.08 59.422 14.02C59.422 14.9533 59.2187 15.8133 58.812 16.6C58.412 17.3867 57.8287 18.0167 57.062 18.49C56.2954 18.9633 55.3687 19.2 54.282 19.2ZM54.282 17.16C55.1154 17.16 55.7554 16.87 56.202 16.29C56.6554 15.7033 56.882 14.9467 56.882 14.02C56.882 13.08 56.6554 12.3167 56.202 11.73C55.7554 11.1367 55.1154 10.84 54.282 10.84C53.4554 10.84 52.8154 11.1367 52.362 11.73C51.9087 12.3167 51.682 13.08 51.682 14.02C51.682 14.9467 51.9087 15.7033 52.362 16.29C52.8154 16.87 53.4554 17.16 54.282 17.16ZM65.6883 19.2C64.6016 19.2 63.6749 18.9633 62.9083 18.49C62.1416 18.0167 61.5549 17.3867 61.1483 16.6C60.7483 15.8133 60.5483 14.9533 60.5483 14.02C60.5483 13.08 60.7483 12.2133 61.1483 11.42C61.5549 10.6267 62.1416 9.99333 62.9083 9.52C63.6749 9.04 64.6016 8.8 65.6883 8.8C66.7749 8.8 67.7016 9.04 68.4683 9.52C69.2349 9.99333 69.8183 10.6267 70.2183 11.42C70.6249 12.2133 70.8283 13.08 70.8283 14.02C70.8283 14.9533 70.6249 15.8133 70.2183 16.6C69.8183 17.3867 69.2349 18.0167 68.4683 18.49C67.7016 18.9633 66.7749 19.2 65.6883 19.2ZM65.6883 17.16C66.5216 17.16 67.1616 16.87 67.6083 16.29C68.0616 15.7033 68.2883 14.9467 68.2883 14.02C68.2883 13.08 68.0616 12.3167 67.6083 11.73C67.1616 11.1367 66.5216 10.84 65.6883 10.84C64.8616 10.84 64.2216 11.1367 63.7683 11.73C63.3149 12.3167 63.0883 13.08 63.0883 14.02C63.0883 14.9467 63.3149 15.7033 63.7683 16.29C64.2216 16.87 64.8616 17.16 65.6883 17.16ZM72.5545 19V9H74.6745L74.8345 10.46L74.4745 10.02C74.8545 9.72 75.3079 9.45 75.8345 9.21C76.3679 8.96333 76.9879 8.84 77.6945 8.84C78.2279 8.84 78.6979 8.92 79.1045 9.08C79.5179 9.23333 79.8712 9.45667 80.1645 9.75C80.4579 10.0367 80.6945 10.38 80.8745 10.78L80.2745 10.64C80.5945 10.0667 81.0612 9.62333 81.6745 9.31C82.2945 8.99667 82.9945 8.84 83.7745 8.84C84.6945 8.84 85.4445 9.03 86.0245 9.41C86.6045 9.79 87.0312 10.3267 87.3045 11.02C87.5779 11.7067 87.7145 12.5133 87.7145 13.44V19H85.2345V13.62C85.2345 12.6867 85.0879 11.9967 84.7945 11.55C84.5079 11.1033 84.0279 10.88 83.3545 10.88C83.0212 10.88 82.7279 10.94 82.4745 11.06C82.2279 11.1733 82.0212 11.3433 81.8545 11.57C81.6945 11.79 81.5745 12.06 81.4945 12.38C81.4145 12.6933 81.3745 13.0467 81.3745 13.44V19H78.8945V13.62C78.8945 13 78.8279 12.4867 78.6945 12.08C78.5679 11.6733 78.3612 11.3733 78.0745 11.18C77.7945 10.98 77.4279 10.88 76.9745 10.88C76.3945 10.88 75.9179 11.0167 75.5445 11.29C75.1779 11.5567 74.8545 11.92 74.5745 12.38L75.0345 11.04V19H72.5545Z" fill="black"/>
</svg>
